# xmcd
#
# Track frame offsets:
#	150
#	17187
#	30960
#	46167
#	63176
#	82948
#	102381
#	117829
#	135888
#	152713
#	169368
#	185650
#	204804
#
# Disc length: 3057 seconds
#
# Revision: 1
# Processed by: cddbd v1.5.2PL0 Copyright (c) Steve Scherf et al.
# Submitted via: audiograbber 1.82.02
#
DISCID=990bef0d
DTITLE=Darryl Worley  - Here And Now
DYEAR=2006
DGENRE=Country
TTITLE0=Here And Now 
TTITLE1=Nothin' But A Love Thang
TTITLE2=Free
TTITLE3=It's The Way You Love Me
TTITLE4=Party Song
TTITLE5=Living In The Here And Now
TTITLE6=Do You Know What That Is
TTITLE7=Things I'll Never Do Again
TTITLE8=Slow Dancing With A Memory
TTITLE9=Whiskey Makes The World Go Round
TTITLE10=Lowdown Women
TTITLE11=Nothin' To Lose
TTITLE12=I Just Came Back From A War
EXTD=Dream`Master
EXTT0=
EXTT1=
EXTT2=
EXTT3=
EXTT4=
EXTT5=
EXTT6=
EXTT7=
EXTT8=
EXTT9=
EXTT10=
EXTT11=
EXTT12=
PLAYORDER=
